<?xml version="1.0"?>
<svg xmlns="http://www.w3.org/2000/svg" viewBox="0 0 512 512" width="512" height="512"><g id="_08-Wish_list" data-name="08-Wish list"><g id="filled"><path d="M464,148H412V96a12,12,0,0,0-12-12H321.573c5.435-23.127-2.806-49.535-21.762-65.708C278.6.2,250.728-.775,224,15.222c-26.727-16-54.6-15.021-75.81,3.07C129.233,34.465,120.992,60.873,126.428,84H48A12,12,0,0,0,36,96V432a12,12,0,0,0,12,12h52v52a12,12,0,0,0,12,12H464a12,12,0,0,0,12-12V160A12,12,0,0,0,464,148ZM163.767,36.55a34.327,34.327,0,0,1,22.721-8.492c9.633,0,20.062,3.768,30.522,11.264a12,12,0,0,0,13.98,0c19.512-13.984,38.918-14.994,53.243-2.772,14.388,12.274,19.254,33.5,11.32,49.366-15.006,30.012-57.1,53.388-71.56,60.733-14.462-7.33-56.5-30.634-71.546-60.733C144.513,70.047,149.379,48.824,163.767,36.55ZM60,108h77.753c26,37.549,78.846,61.821,81.3,62.931a12.007,12.007,0,0,0,9.9,0c2.449-1.11,55.3-25.382,81.3-62.931H388V420H60ZM452,484H124V444H400a12,12,0,0,0,12-12V172h40Z"/><path d="M192,236H320a12,12,0,0,0,0-24H192a12,12,0,0,0,0,24Z"/><circle cx="128" cy="224" r="12"/><path d="M192,300H320a12,12,0,0,0,0-24H192a12,12,0,0,0,0,24Z"/><circle cx="128" cy="288" r="12"/><path d="M192,364H320a12,12,0,0,0,0-24H192a12,12,0,0,0,0,24Z"/><circle cx="128" cy="352" r="12"/></g></g></svg>
